<svg width="15" height="15" viewBox="0 0 15 15" fill="none" xmlns="http://www.w3.org/2000/svg">
<g clip-path="url(#clip0_430_5543)">
<path d="M2.34375 9.375H3.90625C4.165 9.375 4.37499 9.165 4.37499 8.90625V7.34375C4.37499 7.085 4.165 6.875 3.90625 6.875H2.34375C2.085 6.875 1.875 7.085 1.875 7.34375V8.90625C1.875 9.165 2.085 9.375 2.34375 9.375Z" fill="#059BD8"/>
<path d="M2.34375 13.125H3.90625C4.165 13.125 4.37499 12.915 4.37499 12.6562V11.0937C4.37499 10.835 4.165 10.625 3.90625 10.625H2.34375C2.085 10.625 1.875 10.835 1.875 11.0937V12.6562C1.875 12.915 2.085 13.125 2.34375 13.125Z" fill="#059BD8"/>
<path d="M6.71924 9.375H8.28173C8.54048 9.375 8.75048 9.165 8.75048 8.90625V7.34375C8.75048 7.085 8.54048 6.875 8.28173 6.875H6.71924C6.46049 6.875 6.25049 7.085 6.25049 7.34375V8.90625C6.25049 9.165 6.46049 9.375 6.71924 9.375Z" fill="#059BD8"/>
<path d="M6.71924 13.125H8.28173C8.54048 13.125 8.75048 12.915 8.75048 12.6562V11.0937C8.75048 10.835 8.54048 10.625 8.28173 10.625H6.71924C6.46049 10.625 6.25049 10.835 6.25049 11.0937V12.6562C6.25049 12.915 6.46049 13.125 6.71924 13.125Z" fill="#059BD8"/>
<path d="M11.0933 9.375H12.6558C12.9145 9.375 13.1245 9.165 13.1245 8.90625V7.34375C13.1245 7.085 12.9145 6.875 12.6558 6.875H11.0933C10.8345 6.875 10.6245 7.085 10.6245 7.34375V8.90625C10.6245 9.165 10.8345 9.375 11.0933 9.375Z" fill="#059BD8"/>
<path d="M13.125 1.875H12.5V0.625C12.5 0.28 12.22 0 11.875 0H11.25C10.905 0 10.625 0.28 10.625 0.625V1.875H4.375V0.625C4.375 0.28 4.095 0 3.75 0H3.125C2.78 0 2.5 0.28 2.5 0.625V1.875H1.875C0.84125 1.875 0 2.71625 0 3.75V13.125C0 14.1587 0.84125 15 1.875 15H13.125C14.1587 15 15 14.1587 15 13.125V3.75C15 2.71625 14.1587 1.875 13.125 1.875ZM13.75 13.125C13.75 13.4694 13.4694 13.75 13.125 13.75H1.875C1.53062 13.75 1.25 13.4694 1.25 13.125V6.275H13.75V13.125Z" fill="#059BD8"/>
</g>
<defs>
<clipPath id="clip0_430_5543">
<rect width="15" height="15" fill="white"/>
</clipPath>
</defs>
</svg>
