<svg width="16" height="16" viewBox="0 0 16 16" fill="none" xmlns="http://www.w3.org/2000/svg">
<g clip-path="url(#clip0_0_40960)">
<path d="M15.1637 12.354L12.8472 10.0373C12.3858 9.57772 11.6217 9.59168 11.1442 10.0693L9.97714 11.2361C9.90341 11.1955 9.82709 11.1531 9.74685 11.108C9.00986 10.6997 8.00116 10.14 6.93971 9.07774C5.87512 8.01328 5.3149 7.00303 4.90529 6.26556C4.86207 6.18743 4.82065 6.11211 4.77976 6.04057L5.56303 5.25846L5.94812 4.8729C6.42633 4.39455 6.43952 3.63067 5.97919 3.16978L3.66268 0.852752C3.20235 0.392509 2.43791 0.406471 1.95969 0.884814L1.30682 1.54144L1.32466 1.55915C1.10574 1.83848 0.922809 2.16065 0.786676 2.50808C0.661186 2.83878 0.583057 3.15435 0.547332 3.47058C0.241452 6.0064 1.40025 8.32394 4.54507 11.4688C8.89217 15.8156 12.3954 15.4872 12.5465 15.4712C12.8756 15.4319 13.1911 15.3532 13.5117 15.2287C13.8561 15.0942 14.178 14.9115 14.4572 14.6931L14.4714 14.7057L15.1329 14.0581C15.6101 13.5798 15.6238 12.8157 15.1637 12.354Z" fill="#059BD8"/>
</g>
<defs>
<clipPath id="clip0_0_40960">
<rect width="15" height="15" fill="white" transform="translate(0.5 0.5)"/>
</clipPath>
</defs>
</svg>
