<svg width="16" height="16" viewBox="0 0 16 16" fill="none" xmlns="http://www.w3.org/2000/svg">
<g clip-path="url(#clip0_0_40952)">
<path d="M15.4893 3.73143C15.4893 3.71429 15.5011 3.69761 15.5003 3.68066L10.9229 8.09132L15.4949 12.3611C15.4975 12.3306 15.4893 12.2998 15.4893 12.2687V3.73143Z" fill="#059BD8"/>
<path d="M10.224 8.77051L8.3553 10.5684C8.26074 10.6594 8.13862 10.705 8.01642 10.705C7.89677 10.705 7.77712 10.6613 7.68321 10.5738L5.81963 8.83724L1.21777 13.2729C1.32967 13.3131 1.44978 13.3443 1.57555 13.3443H14.4574C14.6441 13.3443 14.8193 13.2875 14.9716 13.2026L10.224 8.77051Z" fill="#059BD8"/>
<path d="M8.01075 9.54281L14.9966 2.81337C14.8385 2.71933 14.6544 2.65625 14.457 2.65625H1.57522C1.31826 2.65625 1.0828 2.75602 0.899414 2.90819L8.01075 9.54281Z" fill="#059BD8"/>
<path d="M0.5 3.89551V12.2687C0.5 12.3648 0.522092 12.4575 0.546075 12.5461L5.09085 8.16957L0.5 3.89551Z" fill="#059BD8"/>
</g>
<defs>
<clipPath id="clip0_0_40952">
<rect width="15" height="15" fill="white" transform="translate(0.5 0.5)"/>
</clipPath>
</defs>
</svg>
