<svg width="15" height="16" viewBox="0 0 15 16" fill="none" xmlns="http://www.w3.org/2000/svg">
<path d="M14.4672 12.3204L11.9984 9.85162C12.4473 8.95386 12.7465 7.90648 12.7465 6.8591C12.7465 3.34289 9.90363 0.5 6.38742 0.5C2.87121 0.5 0.0283203 3.34289 0.0283203 6.8591C0.0283203 10.3753 2.87121 13.2182 6.38742 13.2182C7.4348 13.2182 8.48218 12.919 9.37994 12.4701L11.8488 14.9389C12.5969 15.687 13.7191 15.687 14.4672 14.9389C15.1405 14.1908 15.1405 13.0686 14.4672 12.3204ZM6.38742 11.7219C3.69415 11.7219 1.52458 9.55237 1.52458 6.8591C1.52458 4.16584 3.69415 1.99626 6.38742 1.99626C9.08069 1.99626 11.2503 4.16584 11.2503 6.8591C11.2503 9.55237 9.08069 11.7219 6.38742 11.7219Z" fill="#15A02B"/>
</svg>
