<svg width="15" height="14" viewBox="0 0 15 14" fill="none" xmlns="http://www.w3.org/2000/svg">
<path d="M5.44028 13.0545C5.76186 13.3763 6.28344 13.3763 6.60518 13.0545L13.787 5.87263C14.1402 5.51942 14.2989 4.8489 14.1417 4.37493L13.3417 1.96306C13.1846 1.4891 12.6699 0.98663 12.1921 0.840675L9.60996 0.0525384C9.13239 -0.0932552 8.45887 0.0747735 8.10567 0.428005L1.04196 7.49143C0.720388 7.81317 0.720388 8.33459 1.04196 8.65633L5.44028 13.0545ZM10.0085 2.34034C10.4912 1.85762 11.2736 1.85762 11.7561 2.34034C12.2388 2.82305 12.2388 3.60542 11.7561 4.08811C11.2734 4.57082 10.491 4.57082 10.0085 4.08811C9.52594 3.60542 9.52594 2.82305 10.0085 2.34034Z" fill="#059BD8"/>
</svg>
