<svg width="20" height="20" viewBox="0 0 20 20" fill="none" xmlns="http://www.w3.org/2000/svg">
<g clip-path="url(#clip0_0_8458)">
<path d="M11.118 3.90203H13.2577C13.3797 3.90093 13.4965 3.85196 13.5828 3.76565C13.6691 3.67934 13.7181 3.56259 13.7192 3.44053C13.7156 3.31779 13.6713 3.19972 13.5933 3.10489L10.5726 0.126122C10.536 0.084721 10.4907 0.0519562 10.4399 0.030191C10.3891 0.0084257 10.3341 -0.00179757 10.2789 0.000258678C10.1568 0.00135344 10.0401 0.0503271 9.95376 0.136639C9.86745 0.222951 9.81848 0.3397 9.81738 0.461758V2.60144C9.81958 2.9457 9.95731 3.27523 10.2007 3.51866C10.4442 3.7621 10.7737 3.89983 11.118 3.90203Z" fill="white"/>
<path d="M15.7986 19.7115C15.8936 19.8092 16.0232 19.8656 16.1594 19.8685C16.2957 19.8714 16.4276 19.8205 16.5266 19.7268L19.6023 16.6511C19.6513 16.6028 19.6901 16.5454 19.7166 16.482C19.7431 16.4186 19.7568 16.3506 19.7568 16.282C19.7568 16.2133 19.7431 16.1453 19.7166 16.0819C19.6901 16.0185 19.6513 15.9611 19.6023 15.9129L19.2333 15.5438C19.1376 15.4467 19.0076 15.3913 18.8714 15.3893C18.7352 15.3874 18.6037 15.4392 18.5053 15.5335L16.9315 17.1073L16.9315 11.4683C16.931 11.3325 16.8768 11.2025 16.7808 11.1065C16.6848 11.0104 16.5547 10.9563 16.4189 10.9557L15.9063 10.9557C15.8329 10.9558 15.7603 10.9703 15.6926 10.9984C15.6249 11.0266 15.5633 11.0678 15.5115 11.1197C15.4665 11.1639 15.4306 11.2165 15.406 11.2746C15.3814 11.3326 15.3684 11.395 15.368 11.4581L15.368 17.097L13.8301 15.5591C13.7821 15.5105 13.7249 15.4717 13.6619 15.4453C13.5989 15.4188 13.5312 15.405 13.4628 15.4048C13.3944 15.4045 13.3267 15.4178 13.2635 15.4439C13.2003 15.4699 13.1428 15.5082 13.0945 15.5566L12.7023 15.9487C12.6526 15.9957 12.6127 16.0521 12.5849 16.1146C12.557 16.1771 12.5418 16.2444 12.5402 16.3128C12.5385 16.3812 12.5504 16.4492 12.5751 16.513C12.5999 16.5768 12.637 16.635 12.6844 16.6844L15.7986 19.7115Z" fill="white"/>
<path d="M6.81761 7.79557H6.20508V9.86393H6.81761C6.96241 9.87033 7.10523 9.82848 7.22368 9.74496C7.34213 9.66144 7.42951 9.54096 7.4721 9.40243C7.5431 9.2091 7.57726 9.00418 7.5728 8.79828C7.58619 8.54195 7.53422 8.28642 7.42176 8.05569C7.35388 7.96187 7.26189 7.88816 7.15554 7.84236C7.04918 7.79657 6.93241 7.7804 6.81761 7.79557Z" fill="white"/>
<path d="M3.85529 7.90038C3.75398 7.82471 3.62907 7.78753 3.50287 7.79549H2.89453V8.73108H3.50707C3.63533 8.73915 3.76171 8.69702 3.85948 8.6136C3.90524 8.5661 3.94018 8.50926 3.96191 8.44698C3.98364 8.3847 3.99163 8.31846 3.98535 8.2528C3.99151 8.18731 3.98219 8.1213 3.95814 8.06008C3.93409 7.99886 3.89599 7.94416 3.8469 7.90038H3.85529Z" fill="white"/>
<path d="M13.0646 5.83172H9.7754C9.25864 5.8351 8.76147 5.63418 8.39215 5.27272C8.02283 4.91126 7.81127 4.41852 7.80354 3.90181V0.629359C7.80807 0.551096 7.79711 0.472707 7.77129 0.398687C7.74547 0.324666 7.7053 0.25647 7.65307 0.198006C7.60084 0.139542 7.53759 0.0919613 7.46694 0.0579905C7.39629 0.0240198 7.31962 0.00432729 7.24135 4.19065e-05H1.97186C1.4551 -0.00333571 0.957935 0.197581 0.588615 0.559043C0.219296 0.920504 0.00773498 1.41324 0 1.92995V14.2646C-2.40207e-06 14.5187 0.0501929 14.7704 0.147704 15.0051C0.245215 15.2398 0.388122 15.4529 0.56822 15.6322C0.748318 15.8115 0.962061 15.9535 1.19718 16.05C1.43229 16.1465 1.68415 16.1956 1.9383 16.1945H9.43976V16.1525C9.4361 14.7998 9.84329 13.4778 10.6074 12.3615C11.3716 11.2453 12.4567 10.3873 13.7191 9.90131V6.50299C13.7202 6.41594 13.7042 6.32952 13.6719 6.24867C13.6396 6.16782 13.5917 6.09412 13.5309 6.03179C13.4701 5.96945 13.3977 5.9197 13.3177 5.88537C13.2377 5.85104 13.1517 5.83281 13.0646 5.83172ZM4.35907 9.04124C4.12983 9.20878 3.84965 9.2918 3.56613 9.27618H2.89486V10.4131H2.26135V7.24558H3.62067C3.89081 7.24068 4.15341 7.33468 4.35907 7.5099C4.45683 7.60845 4.53217 7.72693 4.57996 7.85726C4.62775 7.98759 4.64685 8.12669 4.63597 8.26508C4.64854 8.40677 4.6303 8.5495 4.5825 8.68348C4.53471 8.81745 4.45849 8.9395 4.35907 9.04124ZM7.99233 9.83837C7.89101 10.0297 7.73751 10.1885 7.54964 10.2961C7.36177 10.4038 7.14722 10.456 6.93088 10.4467H5.56317V7.24558H6.93088C7.0972 7.24394 7.26278 7.268 7.42175 7.31691C7.6396 7.38733 7.82827 7.52736 7.95877 7.71548C8.06706 7.86962 8.14403 8.04352 8.18532 8.22732C8.22581 8.40484 8.24552 8.58646 8.24406 8.76853C8.25672 9.14118 8.16983 9.51047 7.99233 9.83837ZM11.3151 7.80777H9.71666V8.53778H11.1179V9.08739H9.71666V10.4131H9.05798V7.24978H11.3151V7.80777Z" fill="white"/>
</g>
<defs>
<clipPath id="clip0_0_8458">
<rect width="20" height="20" fill="white"/>
</clipPath>
</defs>
</svg>
