<svg width="16" height="16" viewBox="0 0 16 16" fill="none" xmlns="http://www.w3.org/2000/svg">
<path d="M-3.49691e-07 8C-1.56561e-07 3.58171 3.58171 1.56561e-07 8 3.49691e-07C12.4182 5.42816e-07 16 3.58171 16 8C16 12.4183 12.4182 16 8 16C3.58171 16 -5.42821e-07 12.4183 -3.49691e-07 8ZM8.54181 10.4378C8.5808 10.3988 8.61376 10.356 8.6424 10.3115L11.6448 7.30907C11.7907 7.16325 11.8636 6.97211 11.8636 6.78096C11.8636 6.58981 11.7907 6.39877 11.6448 6.25285C11.3531 5.96112 10.88 5.96112 10.5884 6.25285L8.00085 8.84L5.42672 6.26587C5.13483 5.97413 4.66192 5.97413 4.37029 6.26587C4.07856 6.5576 4.07872 7.03056 4.37013 7.32229L7.35909 10.3114C7.38773 10.3559 7.42064 10.3987 7.45968 10.4375C7.6088 10.5867 7.80523 10.6586 8.0008 10.6553C8.19627 10.6588 8.39259 10.587 8.54181 10.4378Z" fill="#38B157"/>
</svg>
