<svg width="16" height="15" viewBox="0 0 16 15" fill="none" xmlns="http://www.w3.org/2000/svg">
<path d="M8.00013 7.50009C9.03556 7.50009 9.91932 7.13375 10.6517 6.40138C11.3841 5.66901 11.7503 4.78525 11.7503 3.74996C11.7503 2.71484 11.3841 1.83104 10.6517 1.0985C9.91908 0.366167 9.03528 0 8.00013 0C6.96497 0 6.08104 0.366167 5.34871 1.0985C4.61624 1.83104 4.25 2.7148 4.25 3.74996C4.25 4.78525 4.61624 5.66901 5.34871 6.40138C6.08125 7.13375 6.96494 7.50009 8.00013 7.50009Z" fill="#059BD8"/>
<path d="M14.841 11.46C14.8181 11.1313 14.7725 10.7764 14.7043 10.3955C14.6359 10.0146 14.5495 9.66157 14.4453 9.3359C14.3411 9.01047 14.2011 8.69304 14.0253 8.38376C13.8496 8.07451 13.6478 7.81089 13.4198 7.59269C13.1918 7.37457 12.9135 7.20053 12.585 7.07035C12.256 6.9402 11.8931 6.875 11.4959 6.875C11.4374 6.875 11.3006 6.94498 11.0857 7.08499C10.8711 7.22499 10.6285 7.38127 10.3583 7.55387C10.0882 7.72616 9.73641 7.88255 9.30365 8.02231C8.87068 8.16231 8.43617 8.23233 7.99981 8.23233C7.56363 8.23233 7.12908 8.16231 6.69618 8.02231C6.26332 7.88255 5.91165 7.72616 5.64146 7.55387C5.37131 7.38127 5.12883 7.22502 4.91402 7.08499C4.69911 6.94498 4.56246 6.875 4.50386 6.875C4.10674 6.875 3.74376 6.9402 3.41501 7.07035C3.08619 7.20053 2.8079 7.3747 2.57999 7.59269C2.35215 7.81089 2.1503 8.07451 1.97459 8.38376C1.79888 8.69304 1.65891 9.01061 1.55472 9.3359C1.45057 9.66157 1.36427 10.0146 1.29592 10.3955C1.22751 10.7764 1.18195 11.1311 1.15914 11.46C1.13636 11.7889 1.125 12.1259 1.125 12.4709C1.125 13.252 1.36269 13.8691 1.83791 14.3216C2.31322 14.7739 2.94479 15 3.73254 15H12.2679C13.0556 15 13.6871 14.7739 14.1624 14.3216C14.6379 13.8691 14.8754 13.2521 14.8754 12.4709C14.8754 12.1259 14.864 11.7889 14.841 11.46Z" fill="#059BD8"/>
</svg>
