<svg width="15" height="16" viewBox="0 0 15 16" fill="none" xmlns="http://www.w3.org/2000/svg">
<g clip-path="url(#clip0_0_40967)">
<path d="M7.5 0.5C3.35786 0.5 0 3.85786 0 8C0 12.1421 3.35786 15.5 7.5 15.5C11.6421 15.5 15 12.1421 15 8C15 3.85786 11.6421 0.5 7.5 0.5ZM12.2542 4.77734H10.887C10.7298 4.11778 10.5259 3.51134 10.2838 2.97518C10.7463 3.23229 11.1759 3.55517 11.5603 3.93966C11.8202 4.19952 12.0518 4.4801 12.2542 4.77734ZM13.2422 8C13.2422 8.50121 13.178 8.99249 13.0543 9.46484H11.1783C11.2252 8.99105 11.25 8.50136 11.25 8C11.25 7.49864 11.2252 7.00895 11.1783 6.53516H13.0543C13.178 7.00751 13.2422 7.49879 13.2422 8ZM7.5 13.7422C7.34766 13.7422 6.88336 13.4427 6.42059 12.5172C6.2289 12.1338 6.06439 11.6971 5.9298 11.2227H9.07017C8.93558 11.697 8.7711 12.1338 8.57938 12.5172C8.11664 13.4427 7.65234 13.7422 7.5 13.7422ZM5.59022 9.46484C5.53611 8.98886 5.50781 8.4972 5.50781 8C5.50781 7.5028 5.53611 7.01114 5.59022 6.53516H9.40978C9.46389 7.01114 9.49219 7.5028 9.49219 8C9.49219 8.4972 9.46389 8.98886 9.40978 9.46484H5.59022ZM1.75781 8C1.75781 7.49879 1.822 7.00751 1.94572 6.53516H3.82172C3.77481 7.00895 3.75 7.49864 3.75 8C3.75 8.50136 3.77481 8.99105 3.82172 9.46484H1.94572C1.822 8.99249 1.75781 8.50121 1.75781 8ZM7.5 2.25781C7.65234 2.25781 8.11664 2.55726 8.57941 3.4828C8.7711 3.86621 8.93561 4.30294 9.0702 4.77734H5.9298C6.06439 4.30297 6.22887 3.86621 6.42059 3.4828C6.88336 2.55726 7.34766 2.25781 7.5 2.25781ZM4.71618 2.97518C4.47407 3.51134 4.27022 4.11775 4.11305 4.77734H2.74585C2.94826 4.4801 3.17979 4.19952 3.43966 3.93966C3.82415 3.55517 4.2537 3.23229 4.71618 2.97518ZM2.74585 11.2227H4.11305C4.27022 11.8822 4.4741 12.4887 4.71618 13.0248C4.2537 12.7677 3.82412 12.4448 3.43966 12.0603C3.17979 11.8005 2.94823 11.5199 2.74585 11.2227ZM10.2838 13.0248C10.5259 12.4887 10.7298 11.8822 10.887 11.2227H12.2542C12.0517 11.5199 11.8202 11.8005 11.5603 12.0603C11.1758 12.4448 10.7463 12.7677 10.2838 13.0248Z" fill="#059BD8"/>
</g>
<defs>
<clipPath id="clip0_0_40967">
<rect width="15" height="15" fill="white" transform="translate(0 0.5)"/>
</clipPath>
</defs>
</svg>
